<svg xmlns="http://www.w3.org/2000/svg" viewBox="0 0 50.5 35"><defs><style>.cls-1{fill:#586069;}</style></defs><title>Asset 7</title><g id="Layer_2" data-name="Layer 2"><g id="Layer_32" data-name="Layer 32"><path class="cls-1" d="M38,10h-.21v3.67h0A9.19,9.19,0,0,1,46,22.81h0A9.2,9.2,0,0,1,36.81,32H30.19A9.2,9.2,0,0,1,21,22.81h0a9.18,9.18,0,0,1,3.75-7.4h0V10.76h0A12.49,12.49,0,0,0,16.58,24,12.74,12.74,0,0,0,29.36,35H38A12.54,12.54,0,0,0,49.89,18.53,12.39,12.39,0,0,0,38,10Z"/><path class="cls-1" d="M12.54,25h.21V21.33h0A9.19,9.19,0,0,1,4.5,12.19h0A9.2,9.2,0,0,1,13.69,3h6.62a9.2,9.2,0,0,1,9.19,9.19h0a9.18,9.18,0,0,1-3.75,7.4h0v4.65h0a12.49,12.49,0,0,0,8.17-13.19A12.74,12.74,0,0,0,21.14,0H12.5A12.54,12.54,0,0,0,.61,16.47,12.39,12.39,0,0,0,12.54,25Z"/></g></g></svg>