<svg xmlns="http://www.w3.org/2000/svg" viewBox="0 0 49.47 51.55"><defs><style>.cls-1{fill:#586069;}</style></defs><title>Asset 12</title><g id="Layer_2" data-name="Layer 2"><g id="Layer_32" data-name="Layer 32"><path class="cls-1" d="M29.78,33.14h-.15q-2.18,6.75-8.47,6.75a7.82,7.82,0,0,1-6.48-3.15c-1.64-2.11-2.46-4.93-2.46-8.49a19.48,19.48,0,0,1,3.37-11.72,10.48,10.48,0,0,1,8.9-4.68,6.22,6.22,0,0,1,3.75,1.21A5.44,5.44,0,0,1,30.38,16h.09c.06-.58.21-1.79.45-3.61h5q-1.41,16.56-1.41,16.88,0,6.19,3.09,6.2,2.82,0,4.68-3.46a18.92,18.92,0,0,0,1.86-9q0-8.16-5-13.32t-14-5.15A18.22,18.22,0,0,0,11,10.76Q5.37,17,5.37,26.37T10.78,41.3Q16.18,47,25.33,47A27.19,27.19,0,0,0,37.67,44.4v4.83a32.48,32.48,0,0,1-13.12,2.32q-11,0-17.8-6.9T0,26.59q0-11.47,7.14-19T25.39,0Q35.82,0,42.64,6.33t6.83,16.53c0,5-1.24,9.06-3.71,12.24s-5.49,4.79-9,4.79C32.11,39.89,29.79,37.64,29.78,33.14ZM25,16.31c-2.2,0-4,1.12-5.33,3.38a16.2,16.2,0,0,0-2,8.44A9.18,9.18,0,0,0,19,33.47a4.24,4.24,0,0,0,3.65,2q3.3,0,5.22-3.55a19.78,19.78,0,0,0,1.93-9.43C29.81,18.35,28.2,16.31,25,16.31Z"/></g></g></svg>