<svg xmlns="http://www.w3.org/2000/svg" viewBox="0 0 20 14.72"><defs><style>.cls-1{fill:#24292e;}</style></defs><title>Asset 5</title><g id="Layer_2" data-name="Layer 2"><g id="Redesign"><g id="Layer_131" data-name="Layer 131"><polygon class="cls-1" points="0 4.91 3.68 4.91 9 0 9 14.72 3.27 9.81 0 9.81 0 4.91"/><path class="cls-1" d="M11.45,4.5c.26-.13,1.49,1,1.63,2.45.19,1.81-1.37,3.39-1.63,3.27s.42-1.08.41-2.86S11.23,4.61,11.45,4.5Z"/><path class="cls-1" d="M14.08,2.86c.26-.22,2.12,1.19,2.26,3.72.18,3.13-2,5.49-2.26,5.28s1.05-1.48,1-4.57S13.86,3.06,14.08,2.86Z"/><path class="cls-1" d="M16.72.82C17,.59,19.84,4.42,20,7c.18,3.14-2.6,7.16-2.86,7S18.78,10,18.76,7,16.5,1,16.72.82Z"/></g></g></g></svg>