<svg xmlns="http://www.w3.org/2000/svg" viewBox="0 0 21.08 21.36"><defs><style>.cls-1{fill:none;stroke:#586069;stroke-miterlimit:10;stroke-width:0.5px;}</style></defs><title>Asset 1</title><g id="Layer_2" data-name="Layer 2"><g id="Submission"><g id="TitleBox"><path class="cls-1" d="M8.42.59,3.78.26a2.16,2.16,0,0,0-1.7.63L.93,2A2.35,2.35,0,0,0,.25,3.69V8.47a2.29,2.29,0,0,0,.66,1.6L11.83,21a.41.41,0,0,0,.58,0l8.3-8.3a.41.41,0,0,0,0-.58L9.82,1.23A2.12,2.12,0,0,0,8.42.59ZM5.22,5.33H3.73a.41.41,0,0,1-.41-.41V3.44A.41.41,0,0,1,3.73,3H5.22a.41.41,0,0,1,.41.41V4.92A.41.41,0,0,1,5.22,5.33Z"/></g></g></g></svg>