<svg xmlns="http://www.w3.org/2000/svg" viewBox="0 0 45.82 43"><defs><style>.cls-1{fill:#586069;}</style></defs><title>Asset 5</title><g id="Layer_2" data-name="Layer 2"><g id="Layer_32" data-name="Layer 32"><path class="cls-1" d="M10.32,26a9.1,9.1,0,0,0-1.58.15A19.91,19.91,0,0,1,21.82,6l-5-6C15.34.67,4.05,6.06.82,19A28.42,28.42,0,0,0,2,36.05a8.53,8.53,0,0,0,1.81,3.88l0,.07v0a8.5,8.5,0,1,0,6.5-14Z"/><path class="cls-1" d="M34.32,26a9.1,9.1,0,0,0-1.58.15A19.91,19.91,0,0,1,45.82,6l-5-6c-1.48.67-12.77,6.06-16,19a28.42,28.42,0,0,0,1.14,17,8.53,8.53,0,0,0,1.81,3.88l.05.07v0a8.5,8.5,0,1,0,6.5-14Z"/></g></g></svg>